<svg width="900" height="260" viewBox="0 0 180 52" xmlns="http://www.w3.org/2000/svg" shape-rendering="crispEdges" image-rendering="pixelated">
<rect width="180" height="52" fill="#1a1520"/>
<rect y="31" width="180" height="21" fill="#2e2218"/>
<rect y="35" width="180" height="1" fill="#261c14" opacity=".5"/>
<rect y="41" width="180" height="1" fill="#261c14" opacity=".5"/>
<rect y="47" width="180" height="1" fill="#261c14" opacity=".5"/>
<rect x="20" y="31" width="1" height="21" fill="#261c14" opacity=".3"/>
<rect x="50" y="31" width="1" height="21" fill="#261c14" opacity=".3"/>
<rect x="80" y="31" width="1" height="21" fill="#261c14" opacity=".3"/>
<rect x="110" y="31" width="1" height="21" fill="#261c14" opacity=".3"/>
<rect x="140" y="31" width="1" height="21" fill="#261c14" opacity=".3"/>
<rect x="170" y="31" width="1" height="21" fill="#261c14" opacity=".3"/>
<rect y="30" width="180" height="2" fill="#3a3040"/>
<rect x="10" y="5" width="20" height="22" fill="#4a4050"/>
<rect x="11" y="6" width="8" height="9" fill="#1a2a40"/>
<rect x="21" y="6" width="8" height="9" fill="#1a2a40"/>
<rect x="11" y="17" width="8" height="9" fill="#1a2a40"/>
<rect x="21" y="17" width="8" height="9" fill="#1a2a40"/>
<rect x="14" y="8" width="1" height="1" fill="#FFF" opacity=".6"/>
<rect x="25" y="10" width="1" height="1" fill="#FFF" opacity=".4"/>
<rect x="18" y="20" width="1" height="1" fill="#FFF" opacity=".3"/>
<rect x="24" y="7" width="2" height="2" fill="#e8e0b0" opacity=".5"/>
<rect x="8" y="4" width="3" height="24" fill="#3a2840" opacity=".6"/>
<rect x="29" y="4" width="3" height="24" fill="#3a2840" opacity=".6"/>
<rect x="38" y="5" width="22" height="25" fill="#3d2e22"/>
<rect x="38" y="12" width="22" height="1" fill="#2a1f18"/>
<rect x="38" y="19" width="22" height="1" fill="#2a1f18"/>
<rect x="38" y="26" width="22" height="1" fill="#2a1f18"/>
<rect x="39" y="6" width="2" height="6" fill="#c44040"/>
<rect x="42" y="7" width="2" height="5" fill="#4080c0"/>
<rect x="45" y="6" width="2" height="6" fill="#50a050"/>
<rect x="48" y="7" width="2" height="5" fill="#d0a030"/>
<rect x="51" y="6" width="2" height="6" fill="#8060b0"/>
<rect x="54" y="7" width="2" height="5" fill="#c06040"/>
<rect x="57" y="6" width="2" height="6" fill="#4090a0"/>
<rect x="39" y="13" width="2" height="6" fill="#d08030"/>
<rect x="42" y="14" width="2" height="5" fill="#5070c0"/>
<rect x="45" y="13" width="3" height="6" fill="#c05050"/>
<rect x="49" y="14" width="2" height="5" fill="#40a080"/>
<rect x="54" y="17" width="3" height="2" fill="#8B5E3C"/>
<rect x="54" y="15" width="1" height="2" fill="#3a7a3a"/>
<rect x="55" y="14" width="1" height="3" fill="#4a9a4a"/>
<rect x="56" y="15" width="1" height="2" fill="#3a7a3a"/>
<rect x="39" y="20" width="2" height="6" fill="#6080c0"/>
<rect x="42" y="21" width="3" height="5" fill="#c07040"/>
<rect x="46" y="20" width="2" height="6" fill="#50b060"/>
<rect x="49" y="21" width="2" height="5" fill="#a05090"/>
<rect x="55" y="23" width="2" height="3" fill="#e0c080"/>
<rect x="55" y="21" width="2" height="2" fill="#e0c080"/>
<rect x="66" y="7" width="10" height="8" fill="#3d2e22"/>
<rect x="67" y="8" width="8" height="6" fill="#2a4055"/>
<rect x="68" y="12" width="3" height="2" fill="#3a6050"/>
<rect x="70" y="11" width="3" height="3" fill="#4a7060"/>
<rect x="73" y="9" width="1" height="1" fill="#e8e0b0" opacity=".5"/>
<rect x="80" y="8" width="8" height="10" fill="#3d2e22"/>
<rect x="81" y="9" width="6" height="8" fill="#352535"/>
<rect x="82" y="11" width="2" height="2" fill="#c05050" opacity=".6"/>
<rect x="84" y="12" width="2" height="2" fill="#4080c0" opacity=".6"/>
<rect x="83" y="14" width="2" height="2" fill="#d0a030" opacity=".5"/>
<rect x="55" y="29" width="68" height="2" fill="#5a4030"/>
<rect x="56" y="29" width="66" height="1" fill="#6a5040" opacity=".6"/>
<rect x="57" y="31" width="2" height="14" fill="#4a3525"/>
<rect x="120" y="31" width="2" height="14" fill="#4a3525"/>
<rect x="58" y="32" width="12" height="5" fill="#5a4030"/>
<rect x="63" y="34" width="2" height="1" fill="#8a7060"/>
<rect x="58" y="38" width="12" height="5" fill="#5a4030"/>
<rect x="63" y="40" width="2" height="1" fill="#8a7060"/>
<rect x="82" y="18" width="22" height="11" fill="#1a1a2a"/>
<rect x="83" y="19" width="20" height="9" fill="#1c2840"/>
<rect x="85" y="20" width="7" height="1" fill="#70A5FD" opacity=".8"/>
<rect x="93" y="20" width="4" height="1" fill="#BF91F3" opacity=".6"/>
<rect x="85" y="22" width="4" height="1" fill="#50c878" opacity=".7"/>
<rect x="90" y="22" width="6" height="1" fill="#A9B1D6" opacity=".5"/>
<rect x="85" y="24" width="5" height="1" fill="#BF91F3" opacity=".6"/>
<rect x="91" y="24" width="4" height="1" fill="#70A5FD" opacity=".7"/>
<rect x="85" y="26" width="8" height="1" fill="#A9B1D6" opacity=".4"/>
<rect x="91" y="29" width="4" height="1" fill="#333340"/>
<rect x="89" y="29" width="8" height="1" fill="#2a2a35"/>
<rect x="65" y="22" width="12" height="7" fill="#1a1a2a"/>
<rect x="66" y="23" width="10" height="5" fill="#1a2535"/>
<rect x="67" y="24" width="4" height="1" fill="#BF91F3" opacity=".6"/>
<rect x="72" y="24" width="3" height="1" fill="#70A5FD" opacity=".5"/>
<rect x="67" y="26" width="6" height="1" fill="#A9B1D6" opacity=".4"/>
<rect x="64" y="29" width="14" height="1" fill="#2a2a35"/>
<rect x="107" y="25" width="4" height="4" fill="#c8a882"/>
<rect x="111" y="26" width="1" height="2" fill="#a08060"/>
<rect x="108" y="26" width="2" height="1" fill="#4a2820"/>
<rect x="108" y="23" width="1" height="1" fill="#FFF" opacity=".25"/>
<rect x="110" y="22" width="1" height="1" fill="#FFF" opacity=".2"/>
<rect x="109" y="21" width="1" height="1" fill="#FFF" opacity=".15"/>
<rect x="114" y="26" width="3" height="3" fill="#4a4055"/>
<rect x="114" y="24" width="1" height="2" fill="#c05050"/>
<rect x="115" y="23" width="1" height="3" fill="#4080c0"/>
<rect x="116" y="24" width="1" height="2" fill="#50a050"/>
<rect x="119" y="26" width="3" height="3" fill="#f0e070" opacity=".8"/>
<rect x="119" y="27" width="2" height="1" fill="#c0a030" opacity=".4"/>
<rect x="82" y="38" width="16" height="2" fill="#2d2535"/>
<rect x="83" y="33" width="14" height="5" fill="#352a3a"/>
<rect x="89" y="40" width="2" height="7" fill="#2a2530"/>
<rect x="85" y="46" width="2" height="2" fill="#222"/>
<rect x="93" y="46" width="2" height="2" fill="#222"/>
<rect x="85" y="46" width="10" height="1" fill="#2a2530"/>
<rect x="132" y="37" width="8" height="6" fill="#c06840"/>
<rect x="131" y="36" width="10" height="2" fill="#c06840"/>
<rect x="133" y="37" width="6" height="1" fill="#3a2a1a"/>
<rect x="134" y="31" width="2" height="2" fill="#3a7a3a"/>
<rect x="136" y="29" width="2" height="2" fill="#4a9a4a"/>
<rect x="133" y="29" width="2" height="2" fill="#3a8a3a"/>
<rect x="135" y="27" width="2" height="2" fill="#5aaa5a"/>
<rect x="137" y="31" width="2" height="2" fill="#3a7040"/>
<rect x="132" y="32" width="2" height="2" fill="#4a9a4a"/>
<rect x="138" y="29" width="1" height="2" fill="#3a7a3a"/>
<rect x="131" y="30" width="1" height="2" fill="#3a8a3a"/>
<rect x="135" y="33" width="2" height="3" fill="#2a5a2a"/>
<rect x="148" y="12" width="28" height="1" fill="#5a4030"/>
<rect x="150" y="7" width="2" height="5" fill="#c05050"/>
<rect x="153" y="8" width="2" height="4" fill="#4080c0"/>
<rect x="156" y="6" width="3" height="6" fill="#d0a030"/>
<rect x="162" y="9" width="2" height="3" fill="#8a5a3a"/>
<rect x="161" y="5" width="2" height="4" fill="#4a8a4a"/>
<rect x="163" y="5" width="2" height="4" fill="#4a8a4a"/>
<rect x="160" y="6" width="1" height="2" fill="#5a9a5a"/>
<rect x="165" y="7" width="1" height="2" fill="#5a9a5a"/>
<rect x="169" y="7" width="5" height="5" fill="#3d2e22"/>
<rect x="170" y="8" width="3" height="3" fill="#2a3a4a"/>
<rect x="148" y="22" width="28" height="1" fill="#5a4030"/>
<rect x="150" y="18" width="5" height="4" fill="#333340"/>
<rect x="152" y="19" width="2" height="2" fill="#444450"/>
<rect x="159" y="16" width="5" height="5" fill="#2a2530"/>
<rect x="160" y="17" width="3" height="3" fill="#1a1520"/>
<rect x="161" y="17" width="1" height="2" fill="#FFF" opacity=".8"/>
<rect x="162" y="18" width="1" height="1" fill="#FFF" opacity=".6"/>
<rect x="168" y="17" width="1" height="4" fill="#444450"/>
<rect x="174" y="17" width="1" height="4" fill="#444450"/>
<rect x="168" y="16" width="7" height="1" fill="#444450"/>
<rect x="167" y="18" width="2" height="3" fill="#333340"/>
<rect x="174" y="18" width="2" height="3" fill="#333340"/>
<rect x="118" y="22" width="1" height="7" fill="#555560"/>
<rect x="115" y="21" width="7" height="2" fill="#444450"/>
<rect x="113" y="24" width="10" height="5" fill="#f0c060" opacity=".04"/>
<rect x="74" y="47" width="32" height="3" fill="#2a2040" opacity=".4"/>
<rect width="180" height="52" fill="#f0a050" opacity=".02"/>
</svg>
